<svg width="50" height="50" viewBox="0 0 50 50" fill="none" xmlns="http://www.w3.org/2000/svg">
<rect width="50" height="50" rx="5" fill="#090909"/>
<rect x="23" y="14" width="22" height="22" rx="6" fill="#725BFF"/>
<path d="M32.787 17.024H33.987C34.211 17.072 34.435 17.176 34.659 17.336C35.187 17.72 35.507 18.464 35.619 19.568L35.907 23.24C35.907 23.256 36.435 22.92 37.491 22.232C38.867 21.336 39.811 20.632 40.323 20.12C40.435 19.992 40.499 19.88 40.515 19.784C40.563 19.48 40.507 19.232 40.347 19.04C40.235 18.928 40.099 18.872 39.939 18.872C39.811 18.872 39.707 18.816 39.627 18.704C39.579 18.656 39.555 18.584 39.555 18.488C39.555 18.168 39.811 17.832 40.323 17.48C40.787 17.16 41.267 17 41.763 17C42.051 17 42.323 17.088 42.579 17.264C43.075 17.584 43.251 18.136 43.107 18.92C42.947 19.72 41.915 20.792 40.011 22.136C39.211 22.728 38.179 23.424 36.915 24.224C36.323 24.576 36.027 24.784 36.027 24.848L36.387 29.576C36.451 30.312 36.619 30.848 36.891 31.184C37.035 31.36 37.267 31.472 37.587 31.52H37.755L37.899 31.376C38.107 31.2 38.363 31.032 38.667 30.872C38.971 30.728 39.259 30.648 39.531 30.632C39.691 30.632 39.803 30.656 39.867 30.704C40.011 30.784 40.083 30.896 40.083 31.04C40.051 31.488 39.771 31.928 39.243 32.36C38.619 32.888 37.883 33.216 37.035 33.344C36.587 33.408 36.075 33.416 35.499 33.368C35.435 33.352 35.387 33.344 35.355 33.344C35.099 33.28 34.867 33.16 34.659 32.984C34.275 32.68 34.011 32.152 33.867 31.4C33.771 30.936 33.675 29.96 33.579 28.472C33.483 27.112 33.435 26.424 33.435 26.408C33.387 26.408 32.723 26.824 31.443 27.656C29.571 28.872 28.371 29.744 27.843 30.272C27.731 30.4 27.667 30.512 27.651 30.608C27.603 30.912 27.659 31.16 27.819 31.352C27.883 31.416 27.955 31.456 28.035 31.472C28.163 31.504 28.243 31.52 28.275 31.52C28.419 31.52 28.523 31.592 28.587 31.736C28.731 31.976 28.587 32.296 28.155 32.696C27.739 33.064 27.291 33.288 26.811 33.368C26.475 33.4 26.219 33.392 26.043 33.344C25.851 33.296 25.635 33.168 25.395 32.96C25.011 32.576 24.907 32.056 25.083 31.4C25.115 31.272 25.155 31.152 25.203 31.04C25.587 30.256 26.691 29.24 28.515 27.992C29.587 27.224 31.011 26.296 32.787 25.208C33.139 25 33.315 24.872 33.315 24.824L33.003 20.792C32.875 19.688 32.579 19.064 32.115 18.92C31.779 18.872 31.611 18.864 31.611 18.896L31.419 19.064C30.939 19.496 30.427 19.728 29.883 19.76C29.707 19.76 29.579 19.736 29.499 19.688C29.435 19.656 29.379 19.592 29.331 19.496C29.315 19.432 29.315 19.344 29.331 19.232C29.475 18.688 29.883 18.192 30.555 17.744C31.147 17.328 31.891 17.088 32.787 17.024Z" fill="white"/>
<path d="M9 33.4545V16H14.8977C16.2614 16 17.3807 16.233 18.2557 16.6989C19.1307 17.1591 19.7784 17.7926 20.1989 18.5994C20.6193 19.4063 20.8295 20.3239 20.8295 21.3523C20.8295 22.3807 20.6193 23.2926 20.1989 24.0881C19.7784 24.8835 19.1335 25.5085 18.2642 25.9631C17.3949 26.4119 16.2841 26.6364 14.9318 26.6364H10.1591V24.7273H14.8636C15.7955 24.7273 16.5455 24.5909 17.1136 24.3182C17.6875 24.0455 18.1023 23.6591 18.358 23.1591C18.6193 22.6534 18.75 22.0511 18.75 21.3523C18.75 20.6534 18.6193 20.0426 18.358 19.5199C18.0966 18.9972 17.679 18.5938 17.1051 18.3097C16.5313 18.0199 15.7727 17.875 14.8295 17.875H11.1136V33.4545H9ZM17.2159 25.6136L21.5114 33.4545H19.0568L14.8295 25.6136H17.2159Z" fill="white"/>
</svg>
