<svg width="9" height="9" viewBox="0 0 9 9" fill="none" xmlns="http://www.w3.org/2000/svg">
<path d="M0.707078 0.707108C1.0976 0.316584 1.73077 0.316584 2.12129 0.707108L7.77815 6.36396C8.16867 6.75449 8.16867 7.38765 7.77815 7.77818C7.38762 8.1687 6.75446 8.1687 6.36393 7.77818L0.707078 2.12132C0.316554 1.7308 0.316553 1.09763 0.707078 0.707108Z" fill="white"/>
<path d="M0.707107 7.77818C0.316582 7.38766 0.316582 6.75449 0.707107 6.36397L6.36396 0.707116C6.75449 0.316592 7.38765 0.316592 7.77817 0.707116C8.1687 1.09764 8.1687 1.73081 7.77817 2.12133L2.12132 7.77818C1.7308 8.16871 1.09763 8.16871 0.707107 7.77818Z" fill="white"/>
</svg>
